<svg width="611" height="557" viewBox="0 0 611 557" fill="none" xmlns="http://www.w3.org/2000/svg">
<g clip-path="url(#clip0_379_326)">
<path d="M3.57101 550.342C3.13155 550.342 2.69624 550.423 2.28999 550.58C1.88374 550.738 1.51454 550.97 1.2035 551.262C0.892459 551.554 0.645667 551.901 0.4773 552.284C0.308935 552.666 0.22229 553.075 0.22229 553.489C0.22229 553.903 0.308935 554.313 0.4773 554.694C0.645667 555.076 0.892459 555.423 1.2035 555.716C1.51454 556.008 1.88374 556.24 2.28999 556.398C2.69624 556.555 3.13155 556.636 3.57101 556.636H71.3814C72.2668 556.634 73.1153 556.302 73.7408 555.712C74.3663 555.122 74.7176 554.322 74.7176 553.489C74.7176 552.656 74.3663 551.856 73.7408 551.266C73.1153 550.676 72.2668 550.344 71.3814 550.342H3.57101Z" fill="#2F2E41" fill-opacity="0.3"/>
<path d="M574.088 474.738H409.025V472.534H571.746V370.054H574.088V474.738Z" fill="#E4E4E4" fill-opacity="0.3"/>
<path d="M39.0978 517.714H36.7565V413.03H201.82V415.234H39.0978V517.714Z" fill="#E4E4E4" fill-opacity="0.3"/>
<path d="M280.253 284.102H115.19V179.418H117.531V281.899H280.253V284.102Z" fill="#E4E4E4" fill-opacity="0.3"/>
<path d="M607.275 355.964C608.16 355.962 609.009 355.631 609.635 355.04C610.26 354.45 610.611 353.651 610.611 352.817C610.611 351.984 610.26 351.184 609.635 350.595C609.009 350.005 608.16 349.673 607.275 349.671H539.465C539.026 349.67 538.59 349.751 538.183 349.909C537.777 350.067 537.408 350.299 537.097 350.591C536.786 350.883 536.54 351.23 536.371 351.613C536.203 351.994 536.116 352.404 536.116 352.817C536.116 353.231 536.203 353.641 536.371 354.023C536.54 354.405 536.786 354.752 537.097 355.045C537.408 355.336 537.777 355.569 538.183 355.726C538.59 355.884 539.026 355.964 539.465 355.964H607.275Z" fill="#2F2E41" fill-opacity="0.3"/>
<path d="M607.275 337.425C608.16 337.424 609.009 337.092 609.635 336.502C610.26 335.911 610.611 335.112 610.611 334.279C610.611 333.445 610.26 332.646 609.635 332.056C609.009 331.466 608.16 331.134 607.275 331.132H539.465C539.026 331.132 538.59 331.213 538.183 331.37C537.777 331.528 537.408 331.76 537.097 332.052C536.786 332.345 536.54 332.692 536.371 333.074C536.203 333.455 536.116 333.865 536.116 334.279C536.116 334.693 536.203 335.102 536.371 335.484C536.54 335.867 536.786 336.214 537.097 336.506C537.408 336.798 537.777 337.03 538.183 337.187C538.59 337.345 539.026 337.426 539.465 337.425H607.275Z" fill="#2F2E41" fill-opacity="0.3"/>
<path d="M320.057 505.592C295.283 505.592 271.065 498.677 250.466 485.721C229.867 472.766 213.812 454.351 204.332 432.805C194.851 411.261 192.37 387.554 197.203 364.682C202.036 341.81 213.967 320.801 231.484 304.311C249.003 287.821 271.322 276.592 295.62 272.042C319.918 267.493 345.104 269.828 367.993 278.752C390.881 287.676 410.444 302.789 424.207 322.178C437.972 341.568 445.318 364.365 445.318 387.684C445.28 418.945 432.072 448.915 408.588 471.019C385.105 493.123 353.267 505.557 320.057 505.592ZM320.057 271.98C295.746 271.98 271.981 278.767 251.767 291.48C231.553 304.194 215.798 322.264 206.495 343.406C197.191 364.549 194.757 387.813 199.5 410.257C204.242 432.701 215.949 453.318 233.14 469.5C250.331 485.681 272.233 496.701 296.077 501.165C319.921 505.629 344.636 503.339 367.096 494.581C389.557 485.824 408.755 470.994 422.261 451.966C435.767 432.939 442.977 410.568 442.977 387.684C442.94 357.009 429.978 327.599 406.934 305.908C383.889 284.216 352.646 272.015 320.057 271.98Z" fill="#E4E4E4" fill-opacity="0.3"/>
<path d="M3.57159 531.805C2.68512 531.805 1.83495 532.136 1.20812 532.726C0.581287 533.316 0.229126 534.116 0.229126 534.951C0.229126 535.785 0.581287 536.585 1.20812 537.175C1.83495 537.765 2.68512 538.097 3.57159 538.097H71.382C72.2674 538.095 73.1159 537.763 73.7413 537.173C74.3669 536.584 74.7182 535.784 74.7182 534.951C74.7182 534.117 74.3669 533.318 73.7413 532.728C73.1159 532.138 72.2674 531.806 71.382 531.805H3.57159Z" fill="#2F2E41" fill-opacity="0.3"/>
<path d="M339.914 89.7877C336.838 86.5242 333.691 68.325 329.763 66.4774C332.699 73.6517 330.568 75.5512 330.552 83.4252C330.589 87.8961 330.116 92.3537 329.146 96.694H262.609V39.2821C262.609 34.1234 263.528 29.0153 265.313 24.2493C267.099 19.4833 269.716 15.1528 273.015 11.5051C276.315 7.8574 280.231 4.96389 284.541 2.98984C288.852 1.01578 293.472 -0.00015199 298.138 1.70553e-08C299.919 0.0384336 301.689 0.324802 303.404 0.8524C309.123 2.55956 314.336 5.89949 318.519 10.5371C322.702 15.1747 325.708 20.947 327.237 27.2748C332.31 47.7735 340.377 81.8951 339.914 89.7877Z" fill="#2F2E41"/>
<path d="M263.905 160.872L263.938 115.916L240.118 118.277L248.525 146.631L244.591 217.899C242.682 218.374 240.94 219.454 239.577 221.009C238.212 222.564 237.285 224.525 236.908 226.654C236.532 228.783 236.722 230.987 237.455 232.999C238.188 235.01 239.433 236.742 241.038 237.982C242.642 239.222 244.537 239.917 246.492 239.983C248.447 240.048 250.377 239.482 252.046 238.351C253.715 237.222 255.052 235.577 255.894 233.619C256.735 231.66 257.045 229.473 256.785 227.322L263.905 160.872Z" fill="#D08867"/>
<path d="M313.336 481.142L322.976 481.14L327.562 440.367H313.334L313.336 481.142Z" fill="#D08767"/>
<path d="M310.304 475.751L325.54 474.734V482.033L340.026 493.219C340.741 493.771 341.28 494.565 341.564 495.484C341.848 496.403 341.861 497.399 341.602 498.327C341.343 499.255 340.826 500.066 340.126 500.642C339.425 501.218 338.578 501.529 337.709 501.529H319.57L316.443 494.309L315.222 501.529H308.383L310.304 475.751Z" fill="#224F34"/>
<path d="M258.278 481.142L267.5 481.14L271.887 440.367H258.277L258.278 481.142Z" fill="#D08767"/>
<path d="M254.631 475.751L269.868 474.734V482.033L284.353 493.219C285.069 493.771 285.607 494.565 285.891 495.484C286.175 496.403 286.188 497.399 285.93 498.327C285.67 499.255 285.153 500.066 284.453 500.642C283.753 501.218 282.906 501.529 282.036 501.529H263.897L260.77 494.309L259.55 501.529H252.71L254.631 475.751Z" fill="#224F34"/>
<path d="M303.097 67.5695L283.272 68.0025L269.278 84.4582L258.059 86.2912C252.984 87.1209 248.318 89.8654 244.841 94.0669C241.364 98.2683 239.288 103.671 238.958 109.374L240.901 121.268H252.563L259.309 165.396C256.686 172.842 256.508 178.72 261.892 181.029L278.607 216.106L327.976 191.422C330.479 186.627 331.281 181.811 328.723 177.128L332.251 109.575H344.118C344.118 96.9411 340.283 86.2895 329.011 84.8838C324.536 84.3442 320.038 84.0574 315.536 84.0252L303.097 67.5695Z" fill="#83DF75"/>
<path d="M329.715 190.973C329.715 190.973 281.393 200.507 263.468 180.574C263.468 180.574 261.648 184.009 258.905 189.706C258.117 191.345 256.594 192.455 255.674 194.44C254.838 196.243 252.688 198.461 251.777 200.507C251.044 202.153 252.219 204.303 251.457 206.082C242.277 227.492 231.551 257.694 233.851 277.637C235.334 290.499 238.397 320.424 241.622 352.566C241.875 355.077 239.833 358.304 240.086 360.835C240.325 363.222 242.858 364.913 243.097 367.306C243.256 368.894 241.487 370.515 241.645 372.102C241.819 373.842 243.919 375.549 244.092 377.282C248.511 421.664 252.557 463.098 252.557 463.098H275.158L279.423 368.465L275.937 333.969L284.121 264.205L295.422 330.503L296.876 367.815L308.818 464.832H329.715V370.914L331.273 366.035L329.715 359.777L331.273 353.035L329.715 345.693V190.973Z" fill="#224F34"/>
<path d="M310.654 54.6746C307.568 59.2215 303.178 62.4672 298.208 63.877C293.236 65.2868 287.981 64.7768 283.306 62.4309C278.631 60.0849 274.816 56.043 272.489 50.9708C270.162 45.8985 269.462 40.0983 270.503 34.5255C271.545 28.9527 274.267 23.9395 278.22 20.3115C282.173 16.6836 287.122 14.6572 292.253 14.5663C297.383 14.4752 302.387 16.3248 306.444 19.8106C310.499 23.2963 313.364 28.2104 314.566 33.7433C314.631 34.0436 314.686 34.3421 314.74 34.652C315.374 38.1201 315.338 41.698 314.634 45.1496C313.93 48.6011 312.573 51.8477 310.654 54.6746Z" fill="#D08867"/>
<path d="M305.953 40.6585C305.475 37.9571 304.264 35.4887 302.487 33.5923C302.662 36.1809 302.343 38.7819 301.55 41.2203C295.614 41.8112 289.651 40.4834 284.364 37.3932C280.382 34.356 275.313 34.6193 269.41 37.3932C269.41 34.1654 269.975 30.9692 271.074 27.9871C272.173 25.0049 273.783 22.2952 275.813 20.0129C277.843 17.7306 280.254 15.9202 282.907 14.6851C285.559 13.4501 288.403 12.8146 291.274 12.815H295.178C300.976 12.8162 306.537 15.406 310.637 20.0151C314.737 24.6241 317.041 30.875 317.042 37.3932C313.439 38.846 309.728 39.9387 305.953 40.6585Z" fill="#2F2E41"/>
<path d="M296.49 259.793H132.229C129.896 259.786 127.661 258.75 126.011 256.909C124.361 255.07 123.432 252.576 123.426 249.973V160.686C123.432 158.084 124.36 155.59 126.01 153.75C127.66 151.91 129.894 150.873 132.227 150.866H296.488C298.821 150.873 301.057 151.909 302.706 153.749C304.356 155.589 305.286 158.082 305.292 160.685V249.972C305.286 252.575 304.357 255.068 302.707 256.909C301.058 258.749 298.823 259.785 296.49 259.793Z" fill="white"/>
<path d="M296.49 259.793H132.229C129.896 259.786 127.661 258.75 126.011 256.909C124.361 255.07 123.432 252.576 123.426 249.973V160.686C123.432 158.084 124.36 155.59 126.01 153.75C127.66 151.91 129.894 150.873 132.227 150.866H296.488C298.821 150.873 301.057 151.909 302.706 153.749C304.356 155.589 305.286 158.082 305.292 160.685V249.972C305.286 252.575 304.357 255.068 302.707 256.909C301.058 258.749 298.823 259.785 296.49 259.793ZM132.229 153.605C130.547 153.611 128.935 154.359 127.745 155.686C126.556 157.013 125.886 158.811 125.881 160.688V249.972C125.886 251.848 126.557 253.647 127.746 254.974C128.936 256.3 130.547 257.048 132.23 257.053H296.487C298.17 257.048 299.782 256.3 300.972 254.973C302.161 253.646 302.831 251.848 302.836 249.971V160.686C302.831 158.81 302.161 157.011 300.971 155.685C299.781 154.358 298.17 153.611 296.487 153.606L132.229 153.605Z" fill="#184B05"/>
<path d="M223.369 246.877C191.021 246.877 157.291 246.532 144.706 246.308C143.05 246.27 141.474 245.512 140.312 244.196C139.151 242.878 138.497 241.108 138.491 239.261V165.495C138.492 164.834 138.728 164.2 139.146 163.731C139.565 163.264 140.133 162.999 140.726 162.997H288.424C289.018 162.998 289.586 163.26 290.006 163.727C290.425 164.194 290.663 164.827 290.665 165.488V215.537C290.637 223.707 287.739 231.539 282.592 237.354C277.445 243.168 270.459 246.502 263.133 246.64C251.405 246.81 237.515 246.877 223.369 246.877Z" fill="#224F34"/>
<path d="M279.655 210.864H145.859C144.739 210.859 143.646 210.474 142.731 209.759C141.815 209.043 141.12 208.031 140.741 206.863L125.597 159.757C125.306 158.848 125.215 157.875 125.332 156.92C125.449 155.963 125.772 155.054 126.273 154.264C126.774 153.476 127.437 152.832 128.209 152.387C128.98 151.942 129.837 151.708 130.708 151.707L297.95 151.449C298.745 151.448 299.53 151.64 300.25 152.012C300.972 152.384 301.61 152.927 302.12 153.602C302.631 154.278 303.003 155.069 303.207 155.921C303.413 156.773 303.447 157.664 303.308 158.532L303.437 158.592L302.956 159.835L302.952 159.848L284.644 207.212C284.228 208.296 283.532 209.22 282.645 209.869C281.758 210.519 280.718 210.864 279.655 210.864ZM297.958 154.174L130.712 154.432C130.236 154.433 129.767 154.561 129.344 154.805C128.921 155.049 128.557 155.402 128.283 155.833C128.009 156.265 127.832 156.763 127.767 157.287C127.702 157.811 127.752 158.344 127.913 158.841L143.055 205.946C143.264 206.586 143.644 207.14 144.146 207.532C144.648 207.924 145.246 208.136 145.861 208.138H279.655C280.236 208.138 280.805 207.949 281.291 207.593C281.777 207.238 282.157 206.732 282.385 206.139L300.692 158.773C300.887 158.272 300.966 157.725 300.922 157.18C300.878 156.636 300.713 156.113 300.442 155.657C300.171 155.202 299.802 154.827 299.368 154.569C298.935 154.31 298.45 154.174 297.958 154.174Z" fill="#3F3D56"/>
<path d="M214.359 220.766C220.166 220.766 224.875 215.551 224.875 209.116C224.875 202.683 220.166 197.466 214.359 197.466C208.551 197.466 203.842 202.683 203.842 209.116C203.842 215.551 208.551 220.766 214.359 220.766Z" fill="#83DF75"/>
<path d="M344.467 150.45L344.5 105.432L320.672 107.797L329.081 136.189L298.556 187.579C296.647 188.055 294.904 189.137 293.54 190.694C292.175 192.25 291.248 194.215 290.871 196.347C290.494 198.479 290.684 200.686 291.418 202.7C292.151 204.714 293.396 206.448 295.002 207.69C296.607 208.931 298.503 209.628 300.459 209.693C302.413 209.759 304.344 209.192 306.014 208.06C307.684 206.929 309.021 205.282 309.864 203.321C310.706 201.36 311.015 199.169 310.755 197.015L344.467 150.45Z" fill="#D08867"/>
<path d="M536.148 179.74L508.159 139.225C506.796 137.237 505.18 135.663 503.402 134.593C501.623 133.523 499.718 132.978 497.797 132.989H497.698C495.762 132.997 493.846 133.568 492.06 134.67C490.275 135.772 488.656 137.381 487.299 139.405C481.041 148.692 477.481 161.173 477.369 174.227C477.257 187.281 480.6 199.89 486.697 209.405C486.992 209.873 487.299 210.325 487.606 210.775C489.309 213.256 491.188 215.461 493.212 217.353C498.745 222.595 505.197 225.369 511.785 225.337H511.994C516.516 225.315 520.99 223.978 525.157 221.404C529.324 218.83 533.102 215.071 536.272 210.342C539.018 206.257 540.548 200.741 540.525 195.004C540.501 189.267 538.927 183.778 536.148 179.74ZM534.526 207.801C529.329 215.476 522.486 220.291 515.152 221.434C507.816 222.576 500.437 219.976 494.256 214.073C492.489 212.358 490.838 210.396 489.327 208.216C483.296 199.482 479.878 187.595 479.825 175.167C479.772 162.739 483.088 150.789 489.044 141.947C490.177 140.255 491.527 138.91 493.017 137.991C494.506 137.072 496.107 136.597 497.723 136.594H497.797C499.397 136.586 500.982 137.039 502.463 137.93C503.944 138.821 505.29 140.13 506.425 141.785L534.415 182.317C536.732 185.677 538.045 190.248 538.066 195.025C538.087 199.804 536.813 204.398 534.526 207.801Z" fill="#3F3D56"/>
<path d="M440.149 46.7688L412.16 6.23588C409.405 2.22821 405.679 -0.0142605 401.797 6.82475e-05H401.711C399.772 0.0115053 397.854 0.585941 396.066 1.69024C394.28 2.79454 392.659 4.40685 391.3 6.43405C386.126 14.1381 382.771 24.0693 381.727 34.7723C380.683 45.4752 382.004 56.3871 385.498 65.9087L385.51 65.9267C386.951 69.8213 388.741 73.4157 390.832 76.6142C391.066 77.0106 391.337 77.4071 391.607 77.8036C398.034 87.1581 406.729 92.3951 415.786 92.3661H416.007C420.53 92.338 425.003 90.9976 429.17 88.4209C433.337 85.8441 437.114 82.0822 440.284 77.3531C441.645 75.332 442.721 72.9376 443.451 70.3067C444.181 67.6757 444.55 64.8598 444.537 62.0198C444.525 59.1797 444.131 56.3711 443.378 53.7543C442.625 51.1375 441.528 48.7639 440.149 46.7688ZM438.526 74.83C435.584 79.2184 432.078 82.7087 428.211 85.1003C424.344 87.4911 420.192 88.7357 415.995 88.7613H415.786C409.483 88.758 403.321 86.0218 398.076 80.8975C392.83 75.773 388.736 68.489 386.307 59.9615C383.878 51.434 383.222 42.0437 384.423 32.9717C385.624 23.8996 388.628 15.5509 393.058 8.97539C395.349 5.57838 398.466 3.65337 401.725 3.62296C404.983 3.59255 408.117 5.45917 410.439 8.81308L438.428 49.328C440.744 52.6938 442.055 57.2686 442.073 62.0492C442.092 66.8298 440.816 71.426 438.526 74.83Z" fill="#3F3D56"/>
<path d="M531.889 201.459C535.573 195.99 535.531 188.993 531.782 183.563L507.081 147.794C505.057 144.871 502.325 143.243 499.485 143.269C496.644 143.295 493.926 144.971 491.928 147.932C489.428 151.635 487.449 156.024 486.107 160.849C484.765 165.674 484.085 170.839 484.105 176.049C484.125 181.26 484.844 186.413 486.224 191.216C487.603 196.017 489.615 200.374 492.144 204.035C494.672 207.697 497.668 210.592 500.961 212.554C504.253 214.517 507.776 215.51 511.33 215.474C514.884 215.438 518.398 214.377 521.672 212.349C524.945 210.321 527.915 207.367 530.408 203.656L531.889 201.459Z" fill="#224F34"/>
<path d="M437.336 62.3094C438.711 57.3153 437.774 52.0048 434.757 47.7017L411.705 14.8135C409.681 11.8899 406.949 10.2626 404.108 10.2885C401.268 10.3143 398.55 11.9913 396.551 14.9515C394.051 18.6546 392.073 23.044 390.731 27.8686C389.388 32.6932 388.708 37.8584 388.728 43.0689C388.748 48.2794 389.468 53.433 390.848 58.2351C392.227 63.0371 394.239 67.3934 396.768 71.0549C399.296 74.7165 402.292 77.6114 405.584 79.5741C408.876 81.5368 412.4 82.529 415.954 82.4937C419.508 82.4585 423.021 81.3967 426.295 79.3688C428.509 77.9977 430.583 76.2034 432.465 74.0378C434.312 71.9135 435.405 69.3214 436.138 66.6618L437.336 62.3094Z" fill="#224F34"/>
<path d="M499.866 220.309L499.128 223.156C495.662 221.228 492.302 219.293 489.049 217.353C431.422 182.876 403.912 142.523 385.51 65.9269L385.498 65.9089C384.625 62.3044 383.777 58.6159 382.953 54.8431L384.896 53.924C385.545 57.5523 386.495 61.0506 387.723 64.3411C388.731 68.5403 389.768 72.6314 390.833 76.6145C408.129 141.261 433.635 178.208 482.534 209.406C484.992 210.973 487.512 212.529 490.094 214.073C493.091 216.937 496.394 219.044 499.866 220.309Z" fill="#3F3D56"/>
<path d="M411.647 89.086L409.919 91.6511L473.763 184.103L475.491 181.538L411.647 89.086Z" fill="#3F3D56"/>
</g>
<defs>
<clipPath id="clip0_379_326">
<rect width="611" height="557" fill="white"/>
</clipPath>
</defs>
</svg>
