<svg width="24" height="18" viewBox="0 0 24 18" fill="none" xmlns="http://www.w3.org/2000/svg">
<path d="M5.55859 9.07812H5.96875C7.08203 9.07812 8.07812 9.50781 8.95703 10.3672C9.85547 11.207 10.3047 12.2617 10.3047 13.5312C10.3047 14.7812 9.85547 15.8164 8.95703 16.6367C8.07812 17.4375 6.98438 17.8379 5.67578 17.8379C4.25 17.8379 3.05859 17.2715 2.10156 16.1387C1.16406 14.9863 0.695312 13.3555 0.695312 11.2461C0.695312 9.3125 1.10547 7.50586 1.92578 5.82617C2.76562 4.12695 3.78125 2.78906 4.97266 1.8125C6.18359 0.816406 7.25781 0.318359 8.19531 0.318359C8.82031 0.318359 9.30859 0.503906 9.66016 0.875C10.0117 1.24609 10.1875 1.72461 10.1875 2.31055C10.1875 3.16992 9.80664 3.80469 9.04492 4.21484C8.00977 4.78125 7.18945 5.44531 6.58398 6.20703C5.97852 6.96875 5.63672 7.92578 5.55859 9.07812ZM18.5078 9.07812H18.8887C19.9824 9.07812 20.9688 9.50781 21.8477 10.3672C22.7461 11.207 23.1953 12.2617 23.1953 13.5312C23.1953 14.7617 22.7461 15.7969 21.8477 16.6367C20.9688 17.4766 19.875 17.8965 18.5664 17.8965C17.1211 17.8965 15.9297 17.3105 14.9922 16.1387C14.0547 14.9668 13.5859 13.3359 13.5859 11.2461C13.5859 9.74219 13.8301 8.32617 14.3184 6.99805C14.8066 5.66992 15.4316 4.51758 16.1934 3.54102C16.9746 2.54492 17.8047 1.76367 18.6836 1.19727C19.582 0.611328 20.3828 0.318359 21.0859 0.318359C21.7305 0.318359 22.2188 0.503906 22.5508 0.875C22.9023 1.22656 23.0781 1.70508 23.0781 2.31055C23.0781 3.18945 22.6973 3.82422 21.9355 4.21484C20.8613 4.82031 20.0508 5.49414 19.5039 6.23633C18.957 6.95898 18.625 7.90625 18.5078 9.07812Z" fill="#224F34"/>
</svg>
