<svg width="29" height="25" viewBox="0 0 29 25" fill="none" xmlns="http://www.w3.org/2000/svg">
<path d="M24.625 24.078C25.162 24.078 25.6771 23.8986 26.0569 23.5794C26.4366 23.2602 26.65 22.8272 26.65 22.3757C26.65 21.9242 26.4366 21.4913 26.0569 21.172C25.6771 20.8528 25.162 20.6734 24.625 20.6734C24.0879 20.6734 23.5728 20.8528 23.1931 21.172C22.8133 21.4913 22.6 21.9242 22.6 22.3757C22.6 22.8272 22.8133 23.2602 23.1931 23.5794C23.5728 23.8986 24.0879 24.078 24.625 24.078ZM11.125 24.078C11.662 24.078 12.1771 23.8986 12.5569 23.5794C12.9366 23.2602 13.15 22.8272 13.15 22.3757C13.15 21.9242 12.9366 21.4913 12.5569 21.172C12.1771 20.8528 11.662 20.6734 11.125 20.6734C10.5879 20.6734 10.0728 20.8528 9.69308 21.172C9.31332 21.4913 9.09998 21.9242 9.09998 22.3757C9.09998 22.8272 9.31332 23.2602 9.69308 23.5794C10.0728 23.8986 10.5879 24.078 11.125 24.078Z" fill="black" fill-opacity="0.43" stroke="black" stroke-opacity="0.69" stroke-width="1.5" stroke-linecap="round" stroke-linejoin="round"/>
<path d="M5.05 3.65069H28L25.3 16.134M5.05 3.65069L7.75 16.134H25.3M5.05 3.65069C4.82455 2.89375 3.7 1.381 1 1.381M25.3 16.134H5.3605C2.9521 16.134 1.675 17.0203 1.675 18.4037C1.675 19.7871 2.9521 20.6734 5.3605 20.6734H24.625" stroke="black" stroke-opacity="0.69" stroke-width="1.5" stroke-linecap="round" stroke-linejoin="round"/>
</svg>
