<svg width="34" height="34" viewBox="0 0 34 34" fill="none" xmlns="http://www.w3.org/2000/svg">
<path d="M10.16 0.280029C4.71271 0.280029 0.280029 4.71271 0.280029 10.16V23.84C0.280029 29.2873 4.71271 33.72 10.16 33.72H23.84C29.2873 33.72 33.72 29.2873 33.72 23.84V10.16C33.72 4.71271 29.2873 0.280029 23.84 0.280029H10.16ZM10.16 1.80003H23.84C28.4658 1.80003 32.2 5.5343 32.2 10.16V23.84C32.2 28.4658 28.4658 32.2 23.84 32.2H10.16C5.5343 32.2 1.80003 28.4658 1.80003 23.84V10.16C1.80003 5.5343 5.5343 1.80003 10.16 1.80003ZM26.12 6.36003C25.2806 6.36003 24.6 7.04056 24.6 7.88003C24.6 8.7195 25.2806 9.40003 26.12 9.40003C26.9595 9.40003 27.64 8.7195 27.64 7.88003C27.64 7.04056 26.9595 6.36003 26.12 6.36003ZM17 8.64003C12.3919 8.64003 8.64003 12.3919 8.64003 17C8.64003 21.6081 12.3919 25.36 17 25.36C21.6081 25.36 25.36 21.6081 25.36 17C25.36 12.3919 21.6081 8.64003 17 8.64003ZM17 10.16C20.7867 10.16 23.84 13.2134 23.84 17C23.84 20.7867 20.7867 23.84 17 23.84C13.2134 23.84 10.16 20.7867 10.16 17C10.16 13.2134 13.2134 10.16 17 10.16Z" fill="#C2EFD4"/>
</svg>
