<svg width="35" height="35" viewBox="0 0 35 35" fill="none" xmlns="http://www.w3.org/2000/svg">
<g clip-path="url(#clip0_1_311)">
<path d="M23.9531 3.82812C19.7668 3.82812 16.3625 7.23242 16.3625 11.4188C16.3625 11.6703 16.4254 11.9164 16.45 12.1625C11.2739 11.6676 6.69651 9.17383 3.58752 5.35938C3.4426 5.17617 3.21838 5.07774 2.98323 5.09414C2.7508 5.11055 2.54299 5.24453 2.42815 5.44688C1.77463 6.5707 1.40002 7.86407 1.40002 9.25313C1.40002 10.9348 2.00159 12.4742 2.93127 13.7375C2.7508 13.6582 2.55393 13.6145 2.3844 13.5188C2.16838 13.4039 1.90861 13.4094 1.69807 13.5352C1.48752 13.6609 1.359 13.8879 1.35627 14.1313V14.2188C1.35627 16.7973 2.69065 19.0367 4.6594 20.4094C4.63752 20.4066 4.61565 20.4148 4.59377 20.4094C4.35315 20.3684 4.10978 20.4531 3.94846 20.6363C3.78713 20.8195 3.73518 21.0738 3.80628 21.3063C4.58831 23.7371 6.5844 25.5938 9.05628 26.2719C7.08753 27.4422 4.80432 28.1313 2.34065 28.1313C1.80745 28.1313 1.29612 28.1039 0.787528 28.0438C0.459403 28 0.144949 28.1914 0.0355735 28.5031C-0.0765385 28.8148 0.0465145 29.1621 0.328153 29.3344C3.48636 31.3605 7.23519 32.55 11.2657 32.55C17.7981 32.55 22.9223 29.8211 26.3594 25.9219C29.7965 22.0227 31.5875 16.9586 31.5875 12.2281C31.5875 12.0285 31.5711 11.8344 31.5657 11.6375C32.8481 10.6559 33.9938 9.50469 34.8907 8.15938C35.0684 7.89961 35.0493 7.55234 34.8442 7.31172C34.6418 7.07109 34.3 6.99726 34.0157 7.13125C33.6547 7.29258 33.2336 7.30899 32.8563 7.4375C33.3539 6.77305 33.7805 6.05664 34.0375 5.25C34.125 4.97383 34.0293 4.67032 33.8024 4.48984C33.5754 4.31211 33.2582 4.29023 33.0094 4.44063C31.8145 5.14883 30.491 5.64649 29.0938 5.95C27.7375 4.68125 25.952 3.82812 23.9531 3.82812ZM23.9531 5.22813C25.7387 5.22813 27.352 5.99101 28.4813 7.19688C28.6508 7.37188 28.8996 7.4457 29.1375 7.39375C30.0508 7.21328 30.9176 6.94805 31.7625 6.60625C31.2758 7.2625 30.6742 7.82305 29.9688 8.24688C29.6489 8.40274 29.4985 8.77187 29.616 9.1082C29.7309 9.4418 30.0809 9.63594 30.4282 9.55938C31.1282 9.47461 31.7516 9.19024 32.4188 9.0125C31.8199 9.66055 31.1637 10.2457 30.45 10.7625C30.2559 10.9047 30.1492 11.1344 30.1657 11.375C30.1766 11.6594 30.1875 11.941 30.1875 12.2281C30.1875 16.6031 28.5086 21.3527 25.3094 24.9813C22.1102 28.6098 17.4125 31.15 11.2656 31.15C8.47385 31.15 5.83791 30.532 3.45627 29.4438C6.4094 29.2168 9.13284 28.1723 11.3313 26.4469C11.561 26.2637 11.6512 25.9574 11.5582 25.6785C11.4653 25.3996 11.2082 25.2082 10.9156 25.2C8.60784 25.159 6.67463 23.8164 5.64377 21.9188C5.68205 21.9188 5.71486 21.9188 5.75315 21.9188C6.44494 21.9188 7.12853 21.8313 7.76565 21.6563C8.0719 21.566 8.28244 21.2816 8.27151 20.9617C8.26057 20.6418 8.03362 20.3684 7.7219 20.3C5.23088 19.7969 3.3633 17.768 2.93127 15.2469C3.63674 15.4902 4.35861 15.6816 5.14065 15.7063C5.46057 15.7254 5.75041 15.5258 5.84885 15.2223C5.94729 14.9188 5.82698 14.5852 5.55627 14.4156C3.89377 13.3027 2.80002 11.4078 2.80002 9.25313C2.80002 8.45469 3.00784 7.72188 3.28127 7.02188C6.78127 10.8637 11.6813 13.4148 17.2156 13.6938C17.4344 13.7047 17.6477 13.6145 17.7899 13.4477C17.9321 13.2781 17.9867 13.0539 17.9375 12.8406C17.8309 12.3867 17.7625 11.9055 17.7625 11.4188C17.7625 7.98984 20.5242 5.22813 23.9531 5.22813Z" fill="#C2EFD4"/>
</g>
<defs>
<clipPath id="clip0_1_311">
<rect width="35" height="35" fill="white"/>
</clipPath>
</defs>
</svg>
